<svg width="500" height="500" xmlns="http://www.w3.org/2000/svg">
 <style type="text/css">.st0{fill:#672A7A;}
	.st1{fill:#FFFFFF;}</style>

 <g>
  <title>background</title>
  <rect fill="none" id="canvas_background" height="602" width="802" y="-1" x="-1"/>
 </g>
 <g>
  <title>Layer 1</title>
  <g stroke="null" id="XMLID_1_">
   <rect stroke="null" height="500.99996" width="500.99996" class="st0" y="-0.49999" x="-0.49999" id="XMLID_5_"/>
   <g stroke="null" id="XMLID_3_">
    <path stroke="null" d="m321.92437,190.97807c2.60795,-2.33342 3.84329,-5.07863 3.84329,-8.51014c0,-3.15699 -1.09808,-5.62767 -3.01973,-7.68657c-1.50986,-1.64712 -4.11781,-3.15699 -7.68657,-4.66685c-3.15699,-1.3726 -5.35315,-2.47068 -6.31397,-3.43151c-1.09808,-1.09808 -1.64712,-2.47068 -1.64712,-4.39233c0,-1.78438 0.6863,-3.15699 2.0589,-4.25507c1.3726,-1.09808 3.15699,-1.64712 5.35315,-1.64712c3.56877,0 6.72575,0.96082 9.47096,3.01973l0,-6.72575c-2.60795,-1.3726 -5.62767,-1.92164 -8.92192,-1.92164c-4.39233,0 -7.82384,1.09808 -10.7063,3.43151c-2.74521,2.33342 -4.11781,5.21589 -4.11781,8.6474c0,3.15699 0.82356,5.62767 2.60795,7.54931c1.50986,1.64712 3.98055,3.15699 7.54931,4.80411c3.43151,1.50986 5.76493,2.74521 6.86301,3.84329c1.23534,1.09808 1.78438,2.47068 1.78438,3.98055c0,3.84329 -2.60795,5.90219 -7.9611,5.90219c-3.98055,0 -7.54931,-1.3726 -10.84356,-3.98055l0,7.27479c3.01973,1.64712 6.45123,2.47068 10.43178,2.47068c4.52959,0 8.37288,-1.23534 11.25534,-3.70603z" class="st1" id="XMLID_4_"/>
    <path stroke="null" d="m385.06409,193.58602l6.72575,0l0,-36.23671l9.88274,0l0,-5.62767l-9.88274,0l0,-6.45123c0,-5.90219 2.33342,-8.92192 7.00027,-8.92192c1.64712,0 3.15699,0.41178 4.39233,1.09808l0,-6.03945c-1.23534,-0.54904 -2.74521,-0.6863 -4.80411,-0.6863c-3.56877,0 -6.58849,1.09808 -9.05918,3.43151c-2.88247,2.60795 -4.25507,6.17671 -4.25507,10.84356l0,6.86301l-7.13753,0l0,5.62767l7.13753,0l0,36.09945z" class="st1" id="XMLID_29_"/>
    <path stroke="null" d="m171.07534,141.01534c1.23534,0 2.33342,-0.41178 3.15699,-1.23534c0.82356,-0.82356 1.23534,-1.92164 1.23534,-3.15699c0,-1.23534 -0.41178,-2.19616 -1.23534,-3.01973c-0.82356,-0.82356 -1.92164,-1.23534 -3.15699,-1.23534c-1.23534,0 -2.19616,0.41178 -3.15699,1.23534c-0.82356,0.82356 -1.23534,1.92164 -1.23534,3.01973c0,1.23534 0.41178,2.33342 1.23534,3.15699c0.96082,0.82356 2.0589,1.23534 3.15699,1.23534z" class="st1" id="XMLID_30_"/>
    <path stroke="null" d="m204.7041,194.6841c4.39233,0 8.23562,-0.96082 11.52986,-2.88247l0,-6.31397c-3.15699,2.47068 -6.58849,3.56877 -10.29452,3.56877c-4.39233,0 -7.82384,-1.3726 -10.43178,-4.25507c-2.60795,-2.88247 -3.84329,-6.72575 -3.84329,-11.52986c0,-5.07863 1.3726,-9.19644 4.25507,-12.21616c2.74521,-3.01973 6.17671,-4.52959 10.43178,-4.52959c3.56877,0 6.86301,1.09808 10.02,3.29425l0,-6.86301c-2.88247,-1.3726 -6.03945,-2.19616 -9.74548,-2.19616c-6.58849,0 -11.94164,2.0589 -15.92219,6.31397c-3.98055,4.25507 -5.90219,9.74548 -5.90219,16.60849c0,6.17671 1.78438,11.11808 5.35315,14.96137c3.70603,3.98055 8.51014,6.03945 14.54959,6.03945z" class="st1" id="XMLID_31_"/>
    <path stroke="null" d="m443.26244,155.01589l1.23534,0c0.96082,0 1.78438,0.82356 2.60795,2.60795l1.50986,3.43151l2.47068,0l-1.92164,-3.84329c-0.82356,-1.50986 -1.50986,-2.47068 -2.33342,-2.60795l0,0c1.09808,-0.27452 2.0589,-0.6863 2.60795,-1.3726c0.6863,-0.6863 0.96082,-1.50986 0.96082,-2.47068c0,-1.09808 -0.41178,-1.92164 -1.09808,-2.74521c-0.96082,-0.82356 -2.19616,-1.23534 -3.98055,-1.23534l-3.98055,0l0,14.27507l2.0589,0l0,-6.03945l-0.13726,0zm0,-6.45123l1.78438,0c1.23534,0 2.0589,0.27452 2.60795,0.6863c0.41178,0.41178 0.6863,0.96082 0.6863,1.78438c0,1.64712 -0.96082,2.47068 -2.88247,2.47068l-2.19616,0l0,-4.94137z" class="st1" id="XMLID_34_"/>
    <path stroke="null" d="m412.37888,182.19342c0,8.23562 3.70603,12.35342 10.98082,12.35342c2.60795,0 4.66685,-0.41178 6.31397,-1.3726l0,-5.76493c-1.23534,0.96082 -2.60795,1.3726 -4.39233,1.3726c-2.19616,0 -3.84329,-0.54904 -4.80411,-1.78438c-0.96082,-1.09808 -1.3726,-3.15699 -1.3726,-6.03945l0,-23.60877l10.56904,0l0,-5.62767l-10.56904,0l0,-12.35342c-2.33342,0.82356 -4.52959,1.50986 -6.72575,2.19616l0,10.29452l-7.13753,0l0,5.62767l7.13753,0l0,24.70685z" class="st1" id="XMLID_35_"/>
    <path stroke="null" d="m445.59586,165.03589c3.15699,0 5.76493,-1.09808 7.9611,-3.15699c2.19616,-2.0589 3.29425,-4.80411 3.29425,-7.9611c0,-3.15699 -1.09808,-5.90219 -3.29425,-7.9611c-2.0589,-2.0589 -4.80411,-3.01973 -7.82384,-3.01973c-3.15699,0 -5.90219,1.09808 -7.9611,3.15699c-2.19616,2.19616 -3.15699,4.80411 -3.15699,7.82384c0,3.15699 1.09808,5.76493 3.15699,7.9611c2.0589,2.19616 4.66685,3.15699 7.82384,3.15699zm-7.00027,-17.98109c1.92164,-1.92164 4.25507,-2.88247 7.00027,-2.88247c2.74521,0 5.07863,0.96082 7.00027,2.74521c1.92164,1.92164 2.88247,4.25507 2.88247,7.00027c0,2.74521 -0.96082,5.21589 -2.88247,7.00027c-1.92164,1.92164 -4.25507,2.88247 -7.00027,2.88247c-2.74521,0 -5.07863,-0.96082 -7.00027,-2.74521c-1.92164,-1.92164 -2.88247,-4.25507 -2.88247,-7.13753c0.13726,-2.60795 1.09808,-4.94137 2.88247,-6.86301z" class="st1" id="XMLID_40_"/>
    <rect stroke="null" height="41.86438" width="6.72575" class="st1" y="151.72164" x="167.64383" id="XMLID_41_"/>
    <path stroke="null" d="m271.68711,194.6841c6.31397,0 11.3926,-2.0589 15.23589,-6.03945c3.70603,-3.98055 5.62767,-9.3337 5.62767,-16.05945c0,-6.72575 -1.78438,-12.0789 -5.21589,-16.05945c-3.56877,-3.84329 -8.37288,-5.76493 -14.68685,-5.76493c-6.31397,0 -11.3926,1.92164 -15.23589,5.62767c-4.11781,3.98055 -6.17671,9.60822 -6.17671,16.88301c0,6.45123 1.78438,11.52986 5.35315,15.37315c3.70603,3.98055 8.78466,6.03945 15.09863,6.03945zm-9.60822,-34.17781c2.47068,-2.74521 5.90219,-4.11781 10.02,-4.11781c4.25507,0 7.54931,1.3726 9.88274,3.98055c2.47068,2.74521 3.56877,6.86301 3.56877,12.21616c0,5.07863 -1.09808,9.05918 -3.43151,11.94164c-2.33342,2.88247 -5.62767,4.25507 -10.15726,4.25507c-4.25507,0 -7.68657,-1.3726 -10.15726,-4.25507c-2.60795,-2.74521 -3.84329,-6.72575 -3.84329,-11.80438c0.13726,-5.21589 1.50986,-9.3337 4.11781,-12.21616z" class="st1" id="XMLID_44_"/>
    <path stroke="null" d="m368.04382,188.50739c3.70603,-3.98055 5.62767,-9.3337 5.62767,-16.05945c0,-6.72575 -1.78438,-12.0789 -5.21589,-16.05945c-3.56877,-3.84329 -8.37288,-5.76493 -14.68685,-5.76493c-6.31397,0 -11.3926,1.92164 -15.23589,5.62767c-4.11781,3.98055 -6.17671,9.60822 -6.17671,16.88301c0,6.45123 1.78438,11.52986 5.35315,15.37315c3.70603,3.98055 8.6474,6.03945 14.96137,6.03945c6.45123,0.13726 11.52986,-1.92164 15.37315,-6.03945zm-28.82466,-15.64767c0,-5.35315 1.3726,-9.47096 3.98055,-12.35342c2.47068,-2.74521 5.90219,-4.11781 10.02,-4.11781c4.25507,0 7.54931,1.3726 9.88274,3.98055c2.47068,2.74521 3.70603,6.86301 3.70603,12.21616c0,5.07863 -1.09808,9.05918 -3.43151,11.94164c-2.33342,2.88247 -5.62767,4.25507 -10.15726,4.25507c-4.25507,0 -7.68657,-1.3726 -10.15726,-4.25507c-2.47068,-2.60795 -3.84329,-6.58849 -3.84329,-11.66712z" class="st1" id="XMLID_47_"/>
    <polygon stroke="null" points="269.3536866547999,296.80572775842455 324.9441058195095,296.80572775842455 324.9441058195095,280.4717949506318 269.3536866547999,280.4717949506318 269.3536866547999,229.27368768476816 329.33641771835545,229.27368768476816 329.33641771835545,212.93970900905668 251.3725910170212,212.93970900905668 251.3725910170212,366.80848914310053 332.90515584686153,366.80848914310053 332.90515584686153,350.4745257566953 269.3536866547999,350.4745257566953 " class="st1" id="XMLID_48_"/>
    <polygon stroke="null" points="349.7882193778475,229.27368768476816 394.2605608253377,229.27368768476816 394.2605608253377,366.80848914310053 412.24161059519764,366.80848914310053 412.24161059519764,229.27368768476816 456.57668465119576,229.27368768476816 456.57668465119576,212.93970900905668 349.7882193778475,212.93970900905668 " class="st1" id="XMLID_49_"/>
    <path stroke="null" d="m54.95315,345.12135c-3.29425,0 -6.03945,1.23534 -8.37288,3.56877c-2.33342,2.33342 -3.43151,5.21589 -3.43151,8.6474c0,3.29425 1.09808,6.17671 3.43151,8.51014c2.33342,2.33342 5.07863,3.56877 8.37288,3.56877c3.43151,0 6.17671,-1.23534 8.6474,-3.56877c2.33342,-2.33342 3.56877,-5.21589 3.56877,-8.51014c0,-3.29425 -1.23534,-6.17671 -3.56877,-8.51014c-2.47068,-2.60795 -5.35315,-3.70603 -8.6474,-3.70603z" class="st1" id="XMLID_50_"/>
    <path stroke="null" d="m237.78382,153.2315c-2.0589,1.64712 -3.56877,3.98055 -4.52959,7.13753l-0.13726,0l0,-8.6474l-6.72575,0l0,41.86438l6.72575,0l0,-21.4126c0,-4.80411 1.09808,-8.6474 3.15699,-11.3926c1.92164,-2.47068 4.11781,-3.70603 6.86301,-3.70603c2.19616,0 3.98055,0.41178 5.07863,1.3726l0,-7.00027c-0.96082,-0.41178 -2.19616,-0.54904 -3.98055,-0.54904c-2.33342,0.13726 -4.52959,0.82356 -6.45123,2.33342z" class="st1" id="XMLID_51_"/>
    <polygon stroke="null" points="99.69999741101283,142.79971081150114 99.83726480250489,142.79971081150114 121.66164099642693,193.58601590288862 124.95587492056139,193.58601590288862 146.7802816930959,142.79971081150114 146.91751850597547,142.79971081150114 146.36849480792597,193.58601590288862 153.231497439179,193.58601590288862 153.231497439179,134.97588230772243 144.58411045436668,134.97588230772243 123.44603299463934,182.87972507083913 123.03424610946941,182.87972507083913 102.4452076370978,134.97588230772243 93.38601847780929,134.97588230772243 93.38601847780929,193.58601590288862 99.9745169046907,193.58601590288862 " class="st1" id="XMLID_52_"/>
    <polygon stroke="null" points="199.35095584873642,342.92521674659446 116.72026717626586,212.93970900905668 93.24876637562348,212.93970900905668 93.24876637562348,366.80848914310053 111.36712940489424,366.80848914310053 111.36712940489424,234.9013602391239 195.3704002564479,366.80848914310053 217.19479938432931,366.80848914310053 217.19479938432931,212.93970900905668 199.35095584873642,212.93970900905668 " class="st1" id="XMLID_53_"/>
   </g>
  </g>
 </g>
</svg>